<?xml version="1.0" standalone="no"?>
<!DOCTYPE svg PUBLIC "-//W3C//DTD SVG 20010904//EN"
 "http://www.w3.org/TR/2001/REC-SVG-20010904/DTD/svg10.dtd">
<svg version="1.0" xmlns="http://www.w3.org/2000/svg"
 width="500.000000pt" height="500.000000pt" viewBox="0 0 500.000000 500.000000"
 preserveAspectRatio="xMidYMid meet">

<g transform="translate(0.000000,500.000000) scale(0.100000,-0.100000)"
fill="#df6c32" stroke="none">
<path d="M2435 4973 c-16 -9 -511 -290 -1100 -625 -679 -387 -1080 -621 -1097
-641 l-28 -31 0 -1178 0 -1178 28 -29 c21 -22 2044 -1186 2199 -1265 41 -20
75 -20 116 0 125 64 2177 1242 2197 1260 l25 24 3 1178 c2 1135 1 1178 -17
1208 -14 24 -245 159 -1107 651 -599 341 -1099 626 -1111 632 -30 15 -73 13
-108 -6z m538 -980 l456 -663 -934 0 -934 0 467 679 c387 561 469 675 478 662
6 -9 216 -314 467 -678z m-1254 -44 c-221 -321 -402 -585 -403 -586 -1 -1
-169 64 -373 146 l-371 148 771 440 c425 243 773 440 775 438 1 -1 -178 -265
-399 -586z m1941 141 c399 -227 731 -418 738 -424 9 -9 -69 -45 -355 -159
-202 -80 -368 -146 -369 -144 -13 15 -804 1170 -804 1174 0 2 15 -4 33 -15 17
-11 358 -205 757 -432z m-2840 -770 c195 -78 359 -145 364 -150 7 -7 -685
-1271 -741 -1355 -11 -16 -13 119 -13 819 0 794 1 838 18 833 9 -2 177 -68
372 -147z m3740 -687 c0 -460 -2 -834 -4 -832 -3 2 -175 311 -384 686 l-380
682 372 149 c204 83 377 151 384 151 9 1 12 -173 12 -836z m-1157 399 c-404
-741 -909 -1647 -914 -1638 -90 164 -892 1620 -916 1664 l-35 62 957 0 956 0
-48 -88z m-1263 -1462 c87 -157 157 -286 156 -287 -2 -2 -1791 169 -1794 172
-2 2 189 349 424 772 l428 769 315 -570 c172 -314 385 -699 471 -856z m1930
647 c232 -418 420 -760 418 -762 -4 -4 -1791 -175 -1793 -172 -6 7 939 1707
945 1700 5 -4 198 -349 430 -766z m-2465 -1087 c407 -38 750 -70 763 -70 l22
0 0 -375 c0 -206 -2 -375 -4 -375 -4 0 -1548 880 -1555 886 -8 7 36 4 774 -66z
m2554 66 c-7 -6 -1551 -886 -1555 -886 -2 0 -3 168 -2 373 l3 372 740 71 c717
69 823 78 814 70z"/>
</g>
</svg>
